<svg width="206" height="54" viewBox="0 0 310 82" fill="none" xmlns="http://www.w3.org/2000/svg">
<path fill-rule="evenodd" clip-rule="evenodd" d="M50.3346 0.152832V56.4653C50.3346 62.0554 50.5321 67.7483 50.7296 71.0455H37.3945L36.802 63.955H36.5087C33.546 69.3455 27.6206 72.1405 21.396 72.1405C9.93429 72.1405 0.75296 62.255 0.75296 47.0819C0.657196 30.7048 10.8261 21.1218 22.3836 21.1218C28.4107 21.1218 32.9535 23.3179 35.1261 26.6151H35.3236V0.152832H50.3346ZM35.3176 42.9861C35.3176 42.0847 35.3176 41.0864 35.1201 40.191C34.2283 36.0953 30.9724 32.8041 26.3278 32.8041C19.4149 32.8041 15.9554 38.9932 15.9554 46.6826C15.9554 54.8681 20.0074 60.0649 26.2261 60.0649C30.5714 60.0649 34.1266 57.0702 35.0184 52.7748C35.2159 51.7766 35.3117 50.5787 35.3117 49.3808V42.9861H35.3176Z" fill="#FFCC2B"/>
<path fill-rule="evenodd" clip-rule="evenodd" d="M100.515 55.3642C100.515 61.7529 100.712 66.9498 100.91 71.0395H87.8739L87.1796 64.1487H86.8863C85.007 67.1433 80.4642 72.1345 71.7736 72.1345C61.898 72.1345 54.7816 65.9455 54.7816 50.8691V22.2168H69.7985V48.4794C69.7985 55.5699 72.0729 59.8593 77.4057 59.8593C81.5535 59.8593 84.0254 56.9614 84.9112 54.5656C85.3062 53.6642 85.5037 52.5692 85.5037 51.2684V22.2168H100.521V55.3642H100.515Z" fill="#FFCC2B"/>
<path fill-rule="evenodd" clip-rule="evenodd" d="M105.159 37.7953C105.159 31.7031 104.962 26.6151 104.764 22.2168H117.507L118.099 28.908H118.393C120.469 25.7137 124.815 21.1218 133.014 21.1218C139.335 21.1218 144.177 24.419 146.254 29.507H146.451C148.331 26.9116 150.402 24.9151 152.772 23.5176C155.441 22.0172 158.404 21.1218 161.959 21.1218C166.274 21.1218 170.099 22.5435 172.954 25.5322C168.375 32.8888 166.191 41.8306 167.346 51.1232C168.291 58.7279 171.344 65.5401 175.833 71.0455H163.641V44.5833C163.641 37.4928 161.367 33.4031 156.53 33.4031C152.975 33.4031 150.605 35.7989 149.516 38.6968C149.217 39.7918 149.019 41.2922 149.019 42.49V71.0455H134.397V43.6879C134.397 37.5957 132.224 33.4031 127.382 33.4031C123.528 33.4031 121.26 36.3978 120.368 38.7936C119.871 39.9914 119.775 41.389 119.775 42.6897V71.0455H105.153V37.7953H105.159Z" fill="#FFCC2B"/>
<path fill-rule="evenodd" clip-rule="evenodd" d="M235.978 22.2168H244.938L245.633 29.0048H245.932C247.907 25.8104 252.749 21.1157 260.847 21.1157C270.723 21.1157 278.132 27.8069 278.132 42.1814V71.0395H263.115V43.9783C263.115 37.6864 260.943 33.397 255.508 33.397C251.36 33.397 248.888 36.2949 247.805 39.09C247.41 40.0882 247.314 41.4857 247.314 42.8832V71.0395H235.392C241.898 63.0536 245.261 52.4784 243.885 41.4071C242.981 34.1351 240.15 27.5891 235.978 22.2168Z" fill="#FFCC2B"/>
<path fill-rule="evenodd" clip-rule="evenodd" d="M298.985 8.93732V22.2168H309.752V33.397H298.985V51.1716C298.985 57.0642 300.469 59.7564 304.91 59.7564C306.987 59.7564 307.975 59.6536 309.357 59.3571L309.459 70.8398C307.58 71.5416 303.929 72.1406 299.781 72.1406C294.939 72.1406 290.893 70.4406 288.421 67.948C285.656 65.0501 284.273 60.3614 284.273 53.4706V33.4031H277.851V22.2168H284.273V13.0331L298.985 8.93732Z" fill="#FFCC2B"/>
<path fill-rule="evenodd" clip-rule="evenodd" d="M192.484 78.5292C197.817 80.7556 203.778 81.657 209.913 80.8766C217.933 79.8602 224.96 76.1395 230.215 70.7309C227.557 71.4992 224.182 72.2555 220.327 72.6548C210.775 73.6349 206.411 72.3583 200.217 74.1793C195.8 75.4801 194.291 76.3694 192.484 78.5292ZM171.715 52.8111C173.678 63.2593 180.142 71.838 188.791 76.7263C190.006 75.5829 191.245 74.7238 192.783 73.6227C196.823 70.7309 201.785 69.3092 207.082 69.4604C215.988 69.7206 223.721 68.5711 224.361 68.4985C224.828 68.4501 229.67 67.6092 234.231 65.7518C238.738 59.0002 240.94 50.6271 239.857 41.9092C237.666 24.2677 222.799 11.3633 205.657 11.3633C205.478 11.3633 205.298 11.3633 205.119 11.3693C207.297 11.3693 209.512 11.5932 209.512 11.5932C204.113 14.7452 198.978 22.1381 198.637 22.6947C198.295 23.2513 193.968 29.8457 190.389 38.1159C188.264 43.0345 184.871 46.979 180.549 49.4413C177.892 50.9719 175.079 52.1033 171.715 52.8111ZM201.318 11.6476C182.686 14.0131 169.399 30.977 171.278 49.7559C171.224 49.1751 171.2 48.7758 171.2 48.7758C176.276 47.7292 179.197 47.0274 183.237 42.4053C187.516 37.5049 188.234 32.9554 193.196 24.6247C198.008 16.542 203.664 11.696 203.999 11.4117C203.102 11.454 202.21 11.5327 201.318 11.6476Z" fill="#FFCC2B"/>
</svg>
